<?xml version="1.0" standalone="no"?>
<!DOCTYPE svg PUBLIC "-//W3C//DTD SVG 20010904//EN"
 "http://www.w3.org/TR/2001/REC-SVG-20010904/DTD/svg10.dtd">
<svg version="1.0" xmlns="http://www.w3.org/2000/svg"
 width="300.000000pt" height="225.000000pt" viewBox="0 0 300.000000 225.000000"
 preserveAspectRatio="xMidYMid meet">
<metadata>
Created by potrace 1.10, written by Peter Selinger 2001-2011
</metadata>
<g transform="translate(0.000000,225.000000) scale(0.100000,-0.100000)"
fill="#000000" stroke="none">
<path d="M1368 2020 c-380 -60 -678 -345 -754 -721 -22 -112 -15 -312 16 -419
89 -310 333 -546 650 -631 121 -32 319 -32 440 0 341 91 595 356 664 693 20
99 20 267 0 366 -69 337 -327 606 -664 692 -96 24 -263 34 -352 20z m342 -55
c36 -9 116 -41 178 -72 176 -86 310 -223 395 -404 54 -116 75 -208 76 -352 2
-130 -11 -211 -50 -317 -130 -350 -489 -582 -863 -557 -311 21 -580 200 -723
481 -107 211 -112 514 -14 731 120 265 349 445 636 501 88 17 275 11 365 -11z"/>
<path d="M1378 1830 c-253 -43 -476 -235 -558 -482 -81 -245 -23 -512 153
-704 100 -110 214 -176 367 -215 165 -42 365 -12 520 78 87 51 215 181 262
265 165 303 107 653 -146 884 -158 144 -385 210 -598 174z m340 -63 c108 -38
177 -82 264 -169 63 -63 86 -95 122 -170 56 -119 71 -179 71 -303 0 -124 -15
-184 -71 -303 -75 -155 -213 -277 -386 -340 -67 -24 -86 -27 -218 -27 -132 0
-151 3 -218 27 -109 39 -178 84 -264 170 -63 63 -86 96 -122 170 -97 201 -99
396 -7 593 66 142 187 262 329 327 103 47 163 58 302 54 104 -2 137 -7 198
-29z"/>
<path d="M1113 1418 c-35 -45 -59 -86 -55 -90 5 -5 179 -9 388 -9 l379 0 63
81 c34 45 60 85 57 90 -4 6 -157 10 -388 10 l-382 0 -62 -82z m757 30 c0 -7
-16 -31 -34 -53 l-34 -40 -283 -3 c-278 -3 -389 2 -389 17 0 4 14 26 31 49
l31 42 339 0 c265 0 339 -3 339 -12z"/>
<path d="M1055 1210 c-4 -6 22 -48 57 -95 l63 -84 382 -1 c237 0 384 4 388 10
3 5 -22 48 -57 94 l-63 85 -382 1 c-251 0 -384 -4 -388 -10z m751 -38 c17 -12
64 -78 64 -90 0 -9 -87 -12 -332 -12 l-331 0 -44 45 c-24 25 -41 50 -38 55 7
12 665 14 681 2z"/>
<path d="M1114 852 c-36 -46 -62 -87 -59 -93 4 -5 158 -9 388 -9 l382 0 62 82
c35 45 59 86 55 90 -5 5 -179 10 -387 11 l-377 2 -64 -83z m752 35 c7 -7 -17
-48 -47 -78 -18 -18 -36 -19 -354 -19 -273 0 -335 2 -335 13 0 8 17 31 38 53
l37 39 327 0 c180 -1 330 -4 334 -8z"/>
</g>
</svg>
